<svg xmlns="http://www.w3.org/2000/svg" width="92" height="92" viewBox="0 0 92 92">
  <!-- Caixa comum: centro X=46; base Y=84. Escala uniforme pela casa. -->
  <defs>
    <linearGradient id="body" gradientUnits="userSpaceOnUse" x1="25" y1="16" x2="67" y2="85"><stop offset="0" stop-color="#56575A"/><stop offset=".32" stop-color="#3B3D40"/><stop offset=".67" stop-color="#151719"/><stop offset="1" stop-color="#0D0E0F"/></linearGradient>
    <radialGradient id="shadow"><stop stop-color="#000" stop-opacity=".28"/><stop offset="1" stop-color="#000" stop-opacity="0"/></radialGradient>
  </defs>
  <ellipse cx="46" cy="86" rx="29" ry="3" fill="url(#shadow)"/>
  <g fill="url(#body)" stroke="#050607" stroke-width="2" stroke-linecap="round" stroke-linejoin="round">
    <path d="M40 43 H52 C49 55 53 64 62 71 H30 C39 64 43 55 40 43Z"/>
      <path d="M46 18 C38 24 32 33 32 39 C32 47 60 47 60 39 C60 33 54 24 46 18Z"/>
      <circle cx="46" cy="15" r="3"/>
      <path d="M48 25 L39 37" fill="none" stroke="#999A9C" stroke-width="3.4"/>
      <path d="M36 37 Q35 40 38 41" fill="none" stroke="#77797B" opacity=".65"/>
      <path d="M49 52 Q50 63 56 67" fill="none" stroke="#0D0E0F" opacity=".7"/>
      <rect x="33" y="46" width="26" height="5" rx="2.3"/><path d="M29 73 Q28 70 32 68 H60 Q64 70 63 73 L69 79 Q71 84 66 84 H26 Q21 84 23 79Z"/>
    <path d="M28 76 H64" fill="none" stroke="#0D0E0F" stroke-width="1.5"/>
    <path d="M29 79 H61" fill="none" stroke="#77797B" stroke-width="1.5" opacity=".65"/>
  </g>
</svg>
