<svg xmlns="http://www.w3.org/2000/svg" width="92" height="92" viewBox="0 0 92 92">
  <!-- Caixa comum: centro X=46; base Y=84. Escala uniforme pela casa. -->
  <defs>
    <linearGradient id="body" gradientUnits="userSpaceOnUse" x1="25" y1="16" x2="67" y2="85"><stop offset="0" stop-color="#FFF9EA"/><stop offset=".32" stop-color="#F7EEDA"/><stop offset=".67" stop-color="#F1DFC0"/><stop offset="1" stop-color="#D4BA8C"/></linearGradient>
    <radialGradient id="shadow"><stop stop-color="#000" stop-opacity=".28"/><stop offset="1" stop-color="#000" stop-opacity="0"/></radialGradient>
  </defs>
  <ellipse cx="46" cy="86" rx="29" ry="3" fill="url(#shadow)"/>
  <g fill="url(#body)" stroke="#191714" stroke-width="2" stroke-linecap="round" stroke-linejoin="round">
    <path d="M36 46 H56 C54 57 58 65 66 71 H26 C34 65 38 57 36 46Z"/>
      <path d="M20 21 L29 47 H63 L72 21 L59 34 L59 16 L49 34 L46 13 L43 34 L33 16 L33 34Z"/>
      <circle cx="20" cy="19" r="3"/><circle cx="33" cy="15" r="3"/>
      <circle cx="46" cy="12" r="3"/><circle cx="59" cy="15" r="3"/><circle cx="72" cy="19" r="3"/>
      <path d="M33 42 H59" fill="none" stroke="#FFF9EA" opacity=".65"/>
      <path d="M52 54 Q54 62 60 67" fill="none" stroke="#A98A5E" opacity=".65"/>
      <rect x="30" y="47" width="32" height="5" rx="2.3"/><path d="M23 73 Q22 70 26 68 H66 Q70 70 69 73 L75 79 Q77 84 72 84 H20 Q15 84 17 79Z"/>
    <path d="M22 76 H70" fill="none" stroke="#A98A5E" stroke-width="1.5"/>
    <path d="M23 79 H67" fill="none" stroke="#FFF9EA" stroke-width="1.5" opacity=".65"/>
  </g>
</svg>
